<?xml version="1.0" encoding="utf-8"?>
<!-- Generator: Adobe Illustrator 25.3.0, SVG Export Plug-In . SVG Version: 6.00 Build 0)  -->
<svg version="1.1" id="Layer_1" xmlns="http://www.w3.org/2000/svg" xmlns:xlink="http://www.w3.org/1999/xlink" x="0px" y="0px"
	 viewBox="0 0 680.3 111.3" style="enable-background:new 0 0 680.3 111.3;" xml:space="preserve">
<style type="text/css">
	.st0{fill:#DFA8CD;}
	.st1{opacity:0.5;fill:#DFA8CD;}
	.st2{font-family:'Karla-Medium';}
	.st3{font-size:10px;}
	.st4{font-family:'Karla-Regular';}
	.st5{font-size:8px;}
	.st6{fill:none;stroke:#000000;stroke-miterlimit:10;}
	.st7{fill:none;}
	.st8{fill:none;stroke:#000000;stroke-miterlimit:10;stroke-dasharray:3.972,3.972;}
</style>
<rect x="299" y="-0.4" class="st0" width="131.8" height="55.8"/>
<rect x="162.2" y="-0.4" class="st1" width="138.5" height="55.8"/>
<text transform="matrix(1 0 0 1 169.498 28.2175)"><tspan x="0" y="0" class="st2 st3">Physics Research</tspan><tspan x="0" y="10" class="st2 st3">Engineer</tspan><tspan x="0" y="20" class="st4 st3">UPC</tspan></text>
<text transform="matrix(1 0 0 1 306.2735 28.0874)"><tspan x="0" y="0" class="st2 st3">Audio</tspan><tspan x="0" y="10" class="st2 st3">Engineer</tspan><tspan x="0" y="20" class="st4 st3">Freelance</tspan></text>
<text transform="matrix(1 0 0 1 0.5611 31.2718)"><tspan x="0" y="0" class="st2 st5">La Coruña, Spain</tspan><tspan x="0" y="9.6" class="st2 st5">1984</tspan></text>
<text transform="matrix(1 0 0 1 170.3682 12.58)" class="st2 st5">2011</text>
<text transform="matrix(1 0 0 1 306.5189 12.4761)" class="st2 st5">2015</text>
<text transform="matrix(1 0 0 1 102.3176 67.4982)" class="st2 st5">2009</text>
<text transform="matrix(1 0 0 1 102.8174 82.9116)"><tspan x="0" y="0" class="st2 st3">MSc Industrial</tspan><tspan x="0" y="10" class="st2 st3">Engineering</tspan><tspan x="0" y="20" class="st4 st3">UPC, Barcelona</tspan></text>
<polyline class="st6" points="8.9,46.5 8.9,55 38.4,55 "/>
<line class="st7" x1="80.1" y1="55.1" x2="80.1" y2="110.8"/>
<g>
	<text transform="matrix(1 0 0 1 196.8431 67.4028)" class="st2 st5">2012</text>
	<text transform="matrix(1 0 0 1 196.843 82.9116)"><tspan x="0" y="0" class="st2 st3">Audio Engineer</tspan><tspan x="0" y="10" class="st2 st3">Diploma</tspan><tspan x="0" y="20" class="st4 st3">Microfusa, Barcelona</tspan></text>
	<line class="st6" x1="191.2" y1="55.1" x2="191.2" y2="110.8"/>
</g>
<g>
	<text transform="matrix(1 0 0 1 583.642 82.9117)"><tspan x="0" y="0" class="st2 st3">Master of </tspan><tspan x="0" y="10" class="st2 st3">Web Development</tspan><tspan x="0" y="20" class="st4 st3">UOC, Barcelona</tspan></text>
	<text transform="matrix(1 0 0 1 584.3723 67.307)" class="st2 st5">2023</text>
	<line class="st6" x1="577.6" y1="55.3" x2="577.6" y2="110.8"/>
</g>
<g>
	<rect x="430.8" y="-0.4" class="st1" width="75.2" height="55.8"/>
	<text transform="matrix(1 0 0 1 437.8147 28.0875)"><tspan x="0" y="0" class="st2 st3">Full Stack</tspan><tspan x="0" y="10" class="st2 st3">Developer</tspan><tspan x="0" y="20" class="st4 st3">Freelance</tspan></text>
	<text transform="matrix(1 0 0 1 437.849 12.3803)" class="st2 st5">2019</text>
	<line class="st6" x1="430.8" y1="-0.4" x2="430.8" y2="55.4"/>
</g>
<g>
	<rect x="506" y="-0.4" class="st0" width="174.3" height="55.8"/>
	<text transform="matrix(1 0 0 1 512.4067 28.0875)"><tspan x="0" y="0" class="st2 st3">Full Stack</tspan><tspan x="0" y="10" class="st2 st3">Developer</tspan><tspan x="0" y="20" class="st4 st3">Maneko</tspan></text>
	<text transform="matrix(1 0 0 1 513.3816 12.3805)" class="st2 st5">2021</text>
	<line class="st6" x1="506" y1="-0.4" x2="506" y2="55.4"/>
</g>
<line class="st6" x1="299" y1="-0.4" x2="299" y2="55.4"/>
<line class="st6" x1="162.2" y1="-0.4" x2="162.2" y2="55.4"/>
<line class="st6" x1="95.9" y1="55.2" x2="95.9" y2="110.9"/>
<line class="st6" x1="77.4" y1="55" x2="680.3" y2="55"/>
<g>
	<g>
		<line class="st6" x1="37.6" y1="55" x2="39.6" y2="55"/>
		<line class="st8" x1="43.6" y1="55" x2="73.4" y2="55"/>
		<line class="st6" x1="75.4" y1="55" x2="77.4" y2="55"/>
	</g>
</g>
</svg>
